HIERARCHY
ROOT Spine
{
    OFFSET 0.0 0.0 -0.0
    CHANNELS 6 Xposition Yposition Zposition Zrotation Xrotation Yrotation
    JOINT ShoulderCenter
    {
        OFFSET 0.0 31.07941436767578 0.0
        CHANNELS 3 Zrotation Xrotation Yrotation
        JOINT LeftShoulder
        {
            OFFSET 19.429794311523438 0.0 0.0
            CHANNELS 3 Zrotation Xrotation Yrotation
            JOINT LeftElbow
            {
                OFFSET 26.162879943847656 0.0 0.0
                CHANNELS 3 Zrotation Xrotation Yrotation
                JOINT LeftHand
                {
                    OFFSET 33.58753204345703 0.0 0.0
                    CHANNELS 3 Zrotation Xrotation Yrotation
                    End Site
                    {
                        OFFSET 13.435012817382812 0.0 0.0
                    }
                }
            }
        }
        JOINT RightShoulder
        {
            OFFSET -19.429794311523438 0.0 0.0
            CHANNELS 3 Zrotation Xrotation Yrotation
            JOINT RightElbow
            {
                OFFSET -26.162879943847656 0.0 0.0
                CHANNELS 3 Zrotation Xrotation Yrotation
                JOINT RightHand
                {
                    OFFSET -33.58753204345703 0.0 0.0
                    CHANNELS 3 Zrotation Xrotation Yrotation
                    End Site
                    {
                        OFFSET -13.435012817382812 0.0 0.0
                    }
                }
            }
        }
        End Site
        {
            OFFSET 0.0 12.43176555633545 0.0
        }
    }
    JOINT LeftHip
    {
        OFFSET 16.178823746781564 -16.178823746781564 0.0
        CHANNELS 3 Zrotation Xrotation Yrotation
        JOINT LeftKnee
        {
            OFFSET 0.0 -41.68095397949219 0.0
            CHANNELS 3 Zrotation Xrotation Yrotation
            JOINT LeftFoot
            {
                OFFSET 0.0 -46.998077392578125 0.0
                CHANNELS 3 Zrotation Xrotation Yrotation
                End Site
                {
                    OFFSET 0.0 0.0 18.799230575561523
                }
            }
        }
    }
    JOINT RightHip
    {
        OFFSET -16.178823746781564 -16.178823746781564 0.0
        CHANNELS 3 Zrotation Xrotation Yrotation
        JOINT RightKnee
        {
            OFFSET 0.0 -41.68095397949219 0.0
            CHANNELS 3 Zrotation Xrotation Yrotation
            JOINT RightFoot
            {
                OFFSET 0.0 -46.998077392578125 0.0
                CHANNELS 3 Zrotation Xrotation Yrotation
                End Site
                {
                    OFFSET 0.0 0.0 18.799230575561523
                }
            }
        }
    }
}
MOTION
Frames: 13
Frame Time: 0.03333333333333333
-4.0 15.600000381469727 33.39999771118164 7.7651672144064845 -3.314041236673218 12.158272603261862 5.352569845111121e-07 4.1552380391143585e-08 15.979552893434796 89.11591290257985 -8.424250964600128 161.44829909041832 2.48605787483621e-06 2.924027177113907e-06 56.39752983896191 -7.951386703658794e-16 1.1034765745125397e-32 -1.5902773407317588e-15 -130.26634625075087 12.913006448939347 132.824391835436 3.9785405721011714e-07 8.105108529573069e-07 -139.8280740104279 6.3611093629270335e-15 -1.7655625192200634e-31 -3.1805546814635168e-15 -2.2759078349968047 -2.227282417880083 -13.547457088118291 -0.29680700553060974 11.303688542383206 -27.496001416912193 1.5902773407317584e-15 1.0345092886055059e-32 7.454425034680117e-16 -28.490721373133916 2.996973374878097 94.29432020643351 -13.644115161513595 0.8239068540237223 166.77837548355868 -1.9381505090168305e-15 5.358434830823832e-32 -3.16813063973905e-15
-4.0 15.700000762939453 33.29999923706055 7.582459025840917 -2.947772248678586 12.479155820579008 -2.0510398830924513e-07 4.0600235137589165e-08 15.625829312651929 89.34733490302636 -8.152968151714903 161.64786180067688 2.2205266957158776e-06 -3.3908355508688523e-06 56.07821016037777 -2.3854160110976376e-15 3.310429723537619e-32 -1.5902773407317584e-15 -130.19303986802106 13.07284772491548 132.1945252377514 2.2910745066702254e-06 3.470597148216357e-06 -139.38632868051843 0.0 7.951386703658791e-16 0.0 -2.0850628722375593 -2.773494246886358 -13.476259849397525 -0.3547224146624146 11.439160311979643 -28.291695667043864 -6.551892161168204e-33 -1.987846675914698e-16 -3.776908684237926e-15 -28.541456656795315 2.827065652188991 94.96365147686701 -13.72762946019695 1.0578287216061855 162.52338912684556 6.957463365701445e-16 -1.900910817812617e-32 -3.13085851456565e-15
-4.0 15.700000762939453 33.19999694824219 7.399594706029304 -2.764985436099171 12.438017238508035 -2.659044973899402e-07 2.8558453424745954e-07 15.476527728555414 89.5416705802329 -7.257609411305494 161.6890867917969 5.057010850295294e-06 8.897343505306705e-07 55.538906425958636 7.951386703658791e-16 -1.5902773407317582e-15 1.1034765745125397e-32 -130.25644826153183 13.327099882570606 131.87659354024547 2.587182925449493e-06 1.5638267161702986e-06 -139.3346445286768 0.0 0.0 3.1805546814635168e-15 -1.9153375396524117 -2.8578309326344247 -14.543444928763012 -0.5653903649001945 11.166332831408148 -27.45837759500462 -7.758819664541295e-34 -1.987846675914698e-16 -4.472655020808071e-16 -28.39895199457605 2.6202643654285094 94.5426075904828 -13.600959686497863 0.9030583959407174 163.21940115131562 -1.987846675914699e-16 -3.1805546814635168e-15 -2.4848083448933726e-15
-4.0 15.700000762939453 33.19999694824219 7.03341718019347 -2.7672203970144045 12.341156815299753 2.5459603010388755e-07 1.624623883740347e-08 16.44215613665622 90.10247895242732 -8.128326097269243 161.96583284347312 4.783640138792403e-06 -1.7533429061836734e-06 55.0966918676968 -3.1805546814635168e-15 4.4139062980501586e-32 -1.5902773407317584e-15 -130.10539955697448 13.930640760113992 132.43327926666018 -1.2698833739228778e-06 -5.186004804118393e-06 -139.72178338574622 2.2069531490250793e-32 7.951386703658792e-16 -3.1805546814635168e-15 -1.583150928110906 -3.0710574456453106 -13.35394096785908 -0.4768328133278383 11.311715324120026 -27.597897861677826 -7.951386703658791e-16 -7.951386703658791e-16 1.4411888400381559e-15 -27.890318383386784 2.36034608693573 94.14633882372287 -13.373602069014531 0.8087175095606686 165.69625233136153 -9.93923337957349e-16 -3.1805546814635168e-15 -4.969616689786745e-16
-3.9000000953674316 15.700000762939453 33.19999694824219 7.216579482716172 -2.581969516728779 12.329662464525084 8.504451967788731e-07 -2.4345381661089784e-07 16.591774940836295 89.93178223517592 -7.412654319483966 161.97079991054045 -2.427497658621926e-07 -3.0029668828859167e-06 54.81043139646395 2.3854160110976368e-15 -3.310429723537619e-32 -1.590277340731758e-15 -130.36714038036453 14.036956553329642 132.54682518042824 -4.5295430657520535e-07 -1.8429869487581579e-06 -139.8059761550049 0.0 7.95138670365879e-16 0.0 -1.800595584530914 -3.2134738660935556 -13.359147434077897 -0.4810477410871664 11.311538058289552 -27.866969088687913 7.951386703658792e-16 8.620910738379216e-33 1.2424041724466863e-15 -28.258954800253907 2.3810358814536277 93.59544568184644 -13.651528249917058 0.579182343124718 170.23339746067128 -2.5345045117912393e-15 3.180554681463516e-15 1.3666445896913552e-16
-3.9000000953674316 15.700000762939453 33.19999694824219 7.033416411776929 -2.583000134566137 12.316021059133451 2.8429580699357265e-08 -1.0819708288210094e-07 16.625095998880123 90.19662247051633 -7.225514263457735 162.02352531769577 -1.5964347334083963e-06 5.897076439374711e-07 54.6599135489149 3.975693351829396e-15 0.0 0.0 -130.1942644502013 14.114908000667775 132.49652977993114 3.5132534985624773e-06 5.8060699172981025e-06 -139.8059732851556 0.0 -7.951386703658791e-16 0.0 -1.6213744694374344 -3.251661811169724 -13.354891177513663 -0.4940450521301592 11.299836506483317 -27.82633689810211 -7.951386703658794e-16 -7.931237879308878e-33 1.1430118386509515e-15 -28.07942933048194 2.3449544065970716 93.5822263601083 -13.544323742513994 0.5529629794350626 170.3651000496537 -1.7393658414253607e-15 3.2302508483613843e-15 1.453612881762623e-15
-3.9000000953674316 15.700000762939453 33.19999694824219 6.85010819559348 -2.584005295058434 12.047554560773825 1.5340674260648343e-07 5.277410274186275e-07 16.23086772482691 90.44989174103561 -6.574747367397564 161.9265499895614 1.8057879076349967e-06 2.274515058896605e-06 54.72832485078088 -7.951386703658792e-16 0.0 0.0 -129.9522498210132 14.052711719897552 131.952517884268 6.085646303348892e-07 -1.1582284900466575e-06 -139.81229965927275 -4.4139062980501586e-32 -1.5902773407317584e-15 -3.1805546814635168e-15 -1.427341340100623 -3.2962292710915286 -13.095357888294622 -0.4940450521301592 11.299836506483317 -27.82633689810211 -7.951386703658794e-16 -7.931237879308878e-33 1.1430118386509515e-15 -27.908617346100712 2.189572036155777 95.43340987021756 -13.4827176784776 1.040226632292112 162.76042849378976 3.975693351829395e-15 8.965747167914385e-32 2.584200678689107e-15
-3.799999952316284 15.700000762939453 33.19999694824219 6.645278723221696 -2.576741984918119 12.35463444672647 -2.1194308381789183e-07 -3.1220716584672966e-07 16.434807642126852 90.69890722303947 -6.911353794040082 162.04366713530166 -7.750911514695809e-07 2.645862414293068e-06 54.76505454991183 -2.385416011097637e-15 -1.5902773407317582e-15 -1.5902773407317582e-15 -129.75358675494803 14.466670284612391 132.2800414378207 -3.3011172382201236e-06 1.4944739146711953e-06 -139.8418205412377 0.0 0.0 3.1805546814635168e-15 -1.2472750495528926 -3.3391789838416805 -12.713440875394607 -0.353280991780324 11.178820051631407 -28.02680284135806 -1.5902773407317584e-15 5.517382872562698e-33 -3.975693351829396e-16 -27.80002046511467 2.4526381183022186 94.33177490846464 -13.6625943975656 0.7662893660173049 167.46966986073298 -1.0622555674419168e-15 -3.1867667023257502e-15 -2.7457132211071765e-15
-3.799999952316284 15.700000762939453 33.19999694824219 6.462270449650666 -2.577686920811265 12.34137361154505 6.836380826486829e-07 1.225127899799898e-07 16.35401643426465 90.87772057714298 -6.4673246585671125 162.36839900396967 -1.1863242658140957e-06 -3.468443204990985e-06 54.442994640547745 0.0 0.0 1.5902773407317584e-15 -129.7127143136112 14.288908694786233 132.27645187454866 -1.417062562599404e-07 3.0750613103830563e-06 -139.7206184442113 -6.361109362927033e-15 -7.951386703658791e-16 -4.4139062980501586e-32 -1.0682289580172548 -3.3774463211605554 -12.709173525603411 -0.353280991780324 11.178820051631407 -28.02680284135806 -1.5902773407317584e-15 5.517382872562698e-33 -3.975693351829396e-16 -27.472900733438035 2.5241093071383562 93.45875809931393 -13.637692839074868 0.6436089934523003 169.04545902314902 -4.969616689786745e-16 -1.3146888876028304e-32 3.0314661807699143e-15
-3.700000047683716 15.700000762939453 33.19999694824219 6.645277851989123 -2.5767419813645294 12.28642711672601 1.225017800094805e-07 -1.7056021524217707e-07 16.51721349568046 90.84441331026281 -6.85741387706463 162.33393687648677 -3.808280815863713e-07 -7.179920812941064e-06 54.52918245704478 -3.1805546814635168e-15 4.4139062980501586e-32 -1.5902773407317584e-15 -129.93139203111016 14.124262538436966 132.58861878483773 -1.7721699820463438e-06 3.493543469616188e-06 -139.89161496096386 0.0 0.0 0.0 -1.2432956034397264 -3.3406613008037382 -12.645134081370355 -0.48181305967989585 11.17906229403771 -27.8622795770048 7.95138670365879e-16 -7.95138670365879e-16 -1.3914926731402882e-15 -27.654965103740814 2.5286225847381445 92.24078286496422 -13.540619008143242 0.3151433481273606 174.55073728803944 9.93923337957349e-16 -1.987846675914697e-16 9.442271710594815e-15
-3.700000047683716 15.700000762939453 33.19999694824219 6.462270498222068 -2.577686828486505 12.34137535938195 6.682840473614255e-09 6.107238978371437e-07 15.793498646743908 90.7126342801436 -5.509237647696971 162.4489215498309 5.250525275186217e-06 2.2660390499642747e-06 54.609609372917824 7.951386703658791e-16 6.3611093629270335e-15 1.5902773407317584e-15 -129.62301468930264 13.857441835718019 131.9075735298535 3.5782741524294685e-06 4.3527109073923505e-06 -139.72061007725796 6.3611093629270335e-15 0.0 0.0 -1.0682299422874562 -3.3774461874323296 -12.709175244683538 -0.48181305967989585 11.17906229403771 -27.8622795770048 7.95138670365879e-16 -7.95138670365879e-16 -1.3914926731402882e-15 -27.472900629372504 2.524110005007548 93.45875635800077 -13.530401556884943 0.6174701971050928 169.1365122519803 -1.242404172446686e-15 -2.2899294148819793e-32 2.1120870931593663e-15
-3.5999999046325684 15.700000762939453 33.19999694824219 6.645278330314327 -2.576742102053625 12.286428016681793 -8.104284571748975e-08 -2.9293700930977337e-07 15.794895292312798 90.68722376365615 -5.639458804674829 162.46061549254267 3.218179193309767e-06 -3.054501262498662e-06 54.52551255418767 -6.3611093629270335e-15 -1.7655625192200634e-31 3.1805546814635168e-15 -129.75012774406275 14.046454349795837 132.04497446607763 3.3910630723378292e-06 6.710398860773722e-06 -139.84092762356707 0.0 2.3854160110976376e-15 0.0 -1.3784378102941095 -3.3128866916699877 -12.646186142094034 -0.34275264415773793 11.181546339361079 -27.869184392750725 7.95138670365879e-16 -7.95138670365879e-16 -1.3914926731402882e-15 -27.654966561850806 2.528622413163457 92.24079290980006 -13.576079041998305 0.20952706358502612 176.40945912074125 -5.963540027744093e-16 2.1466067738564247e-32 -4.124781852522998e-15
-3.700000047683716 15.700000762939453 33.29999923706055 6.279131862897984 -2.9463714146558018 12.373607592298926 2.367080743172492e-07 1.702285021661099e-07 16.733970068837085 91.30888279999978 -7.234877937957128 162.1904714101253 4.799831183890523e-07 -2.4717816484019605e-07 54.76330984246512 1.9862578341225716e-31 -4.770832022195277e-15 4.770832022195277e-15 -129.45862590570349 14.550941116589613 133.1098525503339 3.5595097642312695e-06 -2.2390535259062746e-06 -139.9485413099677 6.3611093629270335e-15 1.5902773407317584e-15 -8.827812596100317e-32 -0.8126487986988347 -3.0558213061953543 -12.01976066902795 -0.4670340410976349 11.186069841704406 -27.60603929985404 0.0 0.0 2.981770013872047e-16 -27.220493200002316 2.8280926657217242 95.20714702455815 -13.507925140153402 1.0002476141348042 163.38782561845738 -1.2424041724466865e-15 -3.1805546814635168e-15 -3.578124016646457e-15
